<?xml version="1.0" encoding="UTF-8" standalone="no"?>
<!-- Created with Inkscape (http://www.inkscape.org/) -->
<svg xmlns:rdf="http://www.w3.org/1999/02/22-rdf-syntax-ns#" xmlns="http://www.w3.org/2000/svg" xmlns:cc="http://creativecommons.org/ns#" xmlns:dc="http://purl.org/dc/elements/1.1/" xmlns:svg="http://www.w3.org/2000/svg" xmlns:inkscape="http://www.inkscape.org/namespaces/inkscape" xmlns:sodipodi="http://sodipodi.sourceforge.net/DTD/sodipodi-0.dtd" xmlns:ns1="http://sozi.baierouge.fr" xmlns:xlink="http://www.w3.org/1999/xlink" id="svg2" viewBox="0 0 32 32" version="1.1" inkscape:version="0.91 r13725">
  <g id="layer1" transform="translate(0 -1020.4)">
    <path id="path3788" style="stroke-linejoin:round;stroke:#555555;stroke-linecap:round;stroke-width:2.2954;fill:none" d="m28.107 15.339a13.744 13.744 0 1 1 -27.489 0 13.744 13.744 0 1 1 27.489 0z" transform="matrix(1.0744 0 0 1.0744 .56833 1019.9)"/>
    <path id="path3014" style="block-progression:tb;text-indent:0;color:#000000;text-transform:none;fill:#324f85" d="m28.031 1021.2c-0.82326-0.01-1.633 0.4669-2.0312 1.1875l-10.656 16.75-5.8125-5.6875c-0.74433-0.981-2.3323-1.1704-3.2865-0.392-0.95417 0.7784-1.0875 2.3721-0.27599 3.2983l7.9062 9.6875c0.94186 1.1271 3.0077 0.955 3.75-0.3125l12.344-21.031c0.42171-0.6897 0.44152-1.6067 0.04999-2.3139-0.39153-0.7073-1.1791-1.1773-1.9875-1.1861z"/>
  </g>
  <metadata>
    <rdf:RDF>
      <cc:Work>
        <dc:format>image/svg+xml</dc:format>
        <dc:type rdf:resource="http://purl.org/dc/dcmitype/StillImage"/>
        <cc:license rdf:resource="http://creativecommons.org/licenses/publicdomain/"/>
        <dc:publisher>
          <cc:Agent rdf:about="http://openclipart.org/">
            <dc:title>Openclipart</dc:title>
          </cc:Agent>
        </dc:publisher>
        <dc:title>Tick</dc:title>
        <dc:date>2012-10-11T06:30:48</dc:date>
        <dc:description/>
        <dc:source>https://openclipart.org/detail/172678/tick-by-zawertun-172678</dc:source>
        <dc:creator>
          <cc:Agent>
            <dc:title>ZaWertun</dc:title>
          </cc:Agent>
        </dc:creator>
        <dc:subject>
          <rdf:Bag>
            <rdf:li>tick</rdf:li>
          </rdf:Bag>
        </dc:subject>
      </cc:Work>
      <cc:License rdf:about="http://creativecommons.org/licenses/publicdomain/">
        <cc:permits rdf:resource="http://creativecommons.org/ns#Reproduction"/>
        <cc:permits rdf:resource="http://creativecommons.org/ns#Distribution"/>
        <cc:permits rdf:resource="http://creativecommons.org/ns#DerivativeWorks"/>
      </cc:License>
    </rdf:RDF>
  </metadata>
</svg>
